{"title":"Spectre.(2015).h263.1080p-DD+ 5.1-(FR).mkv","uid":13287263,"size":16554477425,"categoryP":"video","categoryS":"movies","magnet":"?xt=urn:btih:83b9396e157baef4b5506cf8b323b1a18f32742a&amp;dn=Spectre.%282015%29.h263.1080p-DD%2B+5.1-%28FR%29.mkv&amp;tr=udp%3A%2F%2Ftracker.leechers-paradise.org%3A6969&amp;tr=udp%3A%2F%2Fzer0day.ch%3A1337&amp;tr=udp%3A%2F%2Fopen.demonii.com%3A1337&amp;tr=udp%3A%2F%2Ftracker.coppersurfer.tk%3A6969&amp;tr=udp%3A%2F%2Fexodus.desync.com%3A6969","seeders":0,"leechers":0,"uploader":"Tyr3ll","files":1,"time":1453554062,"description":"Spectre.(2015).h263.1080p-DD+ 5.1-(FR).mkv\r\n\r\nSee imdb right here :  \nhttp://www.imdb.com/title/tt2379713/\r\n\r\n148 min  |  Action, Adventure, Thriller \r\n\r\nDirector: Sam Mendes \r\n\r\nStars: Daniel Craig, Christoph Waltz, Léa Seydoux and more.\r\n\r\nSource : BD50 import\r\n\r\nGeneral purpose : BDrip by Master dubbing on mkv.h263-1 pass reencoded at 15000 Kbps\r\n\r\nLanguage : French only\r\n\r\nSub : English, French, Spanish, Portuguese\r\n\r\nScreen resolution : 1080p Fit to screen\r\n\r\nAudio : upmixed from simple AC3-5.1 to Dolby Digital Plus aka E-Ac3 5.1\r\n\r\nQuality : Normal/Good\r\n\r\nFinal size : 15,4 Go\r\n\r\n------------------------------------------------------------------------\r\n\r\nSee below for complete details :\r\n\r\nGeneral\r\nUnique ID                      : N/A\r\nComplete name                  : Spectre.(2015).h263.1080p-DD+ 5.1-(FR).mkv\r\n\r\nFormat                         : Matroska\r\nFormat version                 : Version 4 / Version 2\r\nFile size                      : 15.4 GiB\r\nDuration                       : 2h 28mn\r\nOverall bit rate               : 14.9 Mbps\r\nEncoded date                   : UTC 2016-01-23 03:59:54 / UTC 2016-01-23 03:59:54\r\nWriting application            : Lavf57.21.101\r\nWriting library                : Lavf57.21.101 / Lavf57.21.101\r\n\r\nVideo\r\nID                             : 1\r\nFormat                         : H.263\r\nCodec ID                       : V_MS/VFW/FOURCC / H263\r\nDuration                       : 2h 28mn\r\nBit rate                       : 13.8 Mbps\r\nWidth                          : 1 920 pixels\r\nHeight                         : 1 080 pixels\r\nDisplay aspect ratio           : 16:9\r\nFrame rate mode                : Constant\r\nFrame rate                     : 23.976 (24000/1001) fps\r\nBit depth                      : 8 bits\r\nCompression mode               : Lossy\r\nBits/(Pixel*Frame)             : 0.278\r\nStream size                    : 14.3 GiB (93%)\r\nWriting library                : Lavc57.22.100 h263p\r\nLanguage                       : French\r\nDefault                        : Yes\r\nForced                         : No\r\nDURATION                       : 02:28:06.883000000\r\n\r\nAudio\r\nID                             : 2\r\nFormat                         : E-AC-3\r\nFormat/Info                    : Audio Coding 3\r\nFormat settings, Endianness    : Big\r\nCodec ID                       : A_EAC3\r\nDuration                       : 2h 28mn\r\nBit rate mode                  : Constant\r\nBit rate                       : 768 Kbps\r\nChannel(s)                     : 6 channels\r\nChannel positions              : Front: L C R, Side: L R, LFE\r\nSampling rate                  : 48.0 KHz\r\nFrame rate                     : 187.500 fps (256 spf)\r\nBit depth                      : 32 bits\r\nCompression mode               : Lossy\r\nStream size                    : 814 MiB (5%)\r\nWriting library                : Lavc57.22.100 eac3\r\nLanguage                       : French\r\nDefault                        : Yes\r\nForced                         : No\r\nDURATION                       : 02:28:06.880000000\r\n\r\nText #1\r\nID                             : 3\r\nFormat                         : PGS\r\nCodec ID                       : S_HDMV/PGS\r\nCodec ID/Info                  : Picture based subtitle format used on BDs/HD-DVDs\r\nLanguage                       : English\r\nDefault                        : Yes\r\nForced                         : No\r\nDURATION                       : 02:20:51.448000000\r\n\r\nText #2\r\nID                             : 4\r\nFormat                         : PGS\r\nCodec ID                       : S_HDMV/PGS\r\nCodec ID/Info                  : Picture based subtitle format used on BDs/HD-DVDs\r\nLanguage                       : Spanish\r\nDefault                        : Yes\r\nForced                         : No\r\nDURATION                       : 02:27:56.039000000\r\n\r\nText #3\r\nID                             : 5\r\nFormat                         : PGS\r\nCodec ID                       : S_HDMV/PGS\r\nCodec ID/Info                  : Picture based subtitle format used on BDs/HD-DVDs\r\nLanguage                       : French\r\nDefault                        : Yes\r\nForced                         : No\r\nDURATION                       : 02:27:56.039000000\r\n\r\nText #4\r\nID                             : 6\r\nFormat                         : PGS\r\nCodec ID                       : S_HDMV/PGS\r\nCodec ID/Info                  : Picture based subtitle format used on BDs/HD-DVDs\r\nLanguage                       : Portuguese\r\nDefault                        : Yes\r\nForced                         : No\r\nDURATION                       : 02:27:56.039000000\r\nMenu\r\nChapters = 28\r\n\r\n\r\nPlease, seed with me as long as you can.\r\n\r\nTy and kind regards","torrent":{"xt":"urn:btih:83b9396e157baef4b5506cf8b323b1a18f32742a","amp;dn":"Spectre.%282015%29.h263.1080p-DD%2B+5.1-%28FR%29.mkv","amp;tr":["udp%3A%2F%2Ftracker.leechers-paradise.org%3A6969","udp%3A%2F%2Fzer0day.ch%3A1337","udp%3A%2F%2Fopen.demonii.com%3A1337","udp%3A%2F%2Ftracker.coppersurfer.tk%3A6969","udp%3A%2F%2Fexodus.desync.com%3A6969"],"infoHash":"83b9396e157baef4b5506cf8b323b1a18f32742a","infoHashBuffer":{"type":"Buffer","data":[131,185,57,110,21,123,174,244,181,80,108,248,179,35,177,161,143,50,116,42]},"announce":[],"urlList":[]}}